<svg xmlns="http://www.w3.org/2000/svg" viewBox="0 0 1200 630" width="1200" height="630">
  <defs>
    <linearGradient id="bg" x1="0" y1="0" x2="1" y2="1">
      <stop offset="0" stop-color="#1751b0"/>
      <stop offset="1" stop-color="#14264a"/>
    </linearGradient>
  </defs>
  <rect width="1200" height="630" fill="url(#bg)"/>
  <circle cx="980" cy="120" r="220" fill="#ffffff" opacity="0.05"/>
  <circle cx="180" cy="540" r="180" fill="#ffffff" opacity="0.05"/>
  <g transform="translate(96,236)">
    <rect width="158" height="158" rx="38" fill="#ffffff" opacity="0.12"/>
    <path d="M79 138c-5 0-10-2-14-6l-66-66c-17-17-17-44 0-60 17-17 43-17 60 0l20 20 20-20c17-17 43-17 60 0 17 16 17 43 0 60L93 132c-4 4-9 6-14 6z" fill="#fff"/>
    <path d="M12 96h22l13-28 19 53 16-39 12 14h34" fill="none" stroke="#2f86f5" stroke-width="13" stroke-linecap="round" stroke-linejoin="round"/>
  </g>
  <text x="290" y="300" fill="#ffffff" font-family="Cairo, Arial, sans-serif" font-size="64" font-weight="800">Allianz Egypt</text>
  <text x="292" y="372" fill="#bcd6ff" font-family="Cairo, Arial, sans-serif" font-size="40" font-weight="600">Medical Network Directory</text>
  <text x="294" y="430" fill="#8fb4f0" font-family="Cairo, Arial, sans-serif" font-size="26" font-weight="500">Doctors · Hospitals · Pharmacies · Labs · Clinics</text>
</svg>
