<svg xmlns="http://www.w3.org/2000/svg" viewBox="0 0 512 512" width="512" height="512">
  <defs>
    <linearGradient id="g" x1="0" y1="0" x2="1" y2="1">
      <stop offset="0" stop-color="#2f86f5"/>
      <stop offset="1" stop-color="#1751b0"/>
    </linearGradient>
  </defs>
  <rect width="512" height="512" rx="112" fill="url(#g)"/>
  <path d="M256 392c-8 0-16-3-22-9l-104-104c-26-26-26-69 0-95 26-26 68-26 94 0l32 32 32-32c26-26 68-26 94 0 26 26 26 69 0 95L278 383c-6 6-14 9-22 9z" fill="#fff" opacity="0.95"/>
  <path d="M150 268h34l20-44 30 84 26-62 18 22h54" fill="none" stroke="#2f86f5" stroke-width="20" stroke-linecap="round" stroke-linejoin="round"/>
</svg>
